#!OML:ASF E:/inclinewalkrobotboard/Project1/Captureday1/Session1/subject1.ASF
:FULLY-SPECIFIED
:DEGREES
176
root 0 0 0 -3.435744375312602 3.692589847230117 2.5968460939459277
lowerback 11.710819687536478 -0.9409019411834398 -3.6584649414567076
upperback 1.256019021642759 -1.5075100157145782 1.083344271697503
thorax -5.185776204029316 -0.6482139603234369 3.333953842283732
lowerneck -17.696105690072823 -2.873015031831259 -2.484738106312051
upperneck 17.62917976884757 -3.1359820675301124 -0.3544943040995534
head 8.3049159051091 -1.6872623978781407 -0.07663717646788393
rclavicle 3.0268235330700087E-15 1.5126013416077006E-15
rhumerus -50.5690496813395 -18.951325700738522 -73.27286117758291
rradius 23.52378554738741
rwrist -1.625014250782474
rhand -21.472193206995005 27.7294090159143
rfingers 7.125020000000054
rthumb 4.889270299118884 -2.519599641012457
lclavicle 8.10117766364389E-18 -7.853790134213688E-15
lhumerus -34.895385516000886 -1.687124472871405 84.2692063639667
lradius 29.06627359149677
lwrist 9.272074096921184
lhand -31.427964863357342 24.650319422024662
lfingers 7.12502000000004
lthumb -4.642698328601419 55.30075177079593
rfemur -28.950499562954136 28.615298680513575 41.74609450779596
rtibia 23.50747043702244
rfoot -8.161396589497143 -13.526358127210303
rtoes -3.4227158780865956
lfemur 0.7543430233330284 -3.7928837368978954 -22.576263747122645
ltibia 32.26054176143504
lfoot -5.17524731264669 -5.8683296984796804
ltoes -10.704881472986143
177
root 0 0 0 -3.442940577710381 3.5073095622307164 2.558737962053792
lowerback 11.723368506209859 -0.9220698499564532 -3.60703625630292
upperback 1.258366414189986 -1.4790903664526727 1.0896081563837607
thorax -5.19509416687689 -0.6345129308708566 3.308768026043365
lowerneck -17.687377024162632 -2.875207318318271 -2.469252318520875
upperneck 17.63837762276871 -3.143415314715655 -0.35729238815034847
head 8.304587773804773 -1.6900454908779843 -0.08007395207482904
rclavicle 3.07650641084952E-15 1.5986052761177078E-15
rhumerus -50.54714739068402 -18.959930545191185 -73.44546376415504
rradius 23.499783860251632
rwrist -1.7001373021296935
rhand -21.449336220519722 27.698975855657572
rfingers 7.125020000000054
rthumb 4.911192476804494 -2.547770564666063
lclavicle 6.667590656703704E-17 -7.736415809700602E-15
lhumerus -34.912527255532126 -1.6986236238938694 84.33644621327998
lradius 29.08031380828622
lwrist 9.385078776280725
lhand -31.362364652388287 24.700579645639905
lfingers 7.12502000000004
lthumb -4.580489309663083 55.33879713229056
rfemur -28.832871812835364 28.469657172090535 41.69942621412747
rtibia 23.524269985360675
rfoot -8.234148647605414 -13.387362540905757
rtoes -3.405097618806291
lfemur -0.6303477452444568 -3.0373589461816337 -22.330602029786526
ltibia 35.475582757139314
lfoot -3.920927552115746 -6.830421288055447
ltoes -11.501157453729418
178
root 0 0 0 -3.454743111472297 3.2359162003787496 2.5013494669455945
lowerback 11.741749104114312 -0.8938065354807947 -3.5286569836130575
upperback 1.260730234634499 -1.435762552099707 1.0990297860158815
thorax -5.209715371351873 -0.6135669427640706 3.2700762242992627
lowerneck -17.676346069802438 -2.8797181991686758 -2.448077186464585
upperneck 17.655115420392672 -3.156053183236764 -0.3611129814212717
head 8.305945564944679 -1.6950142347063935 -0.08510270781697327
rclavicle 3.223702725112589E-15 1.7409493648867132E-15
rhumerus -50.51717456652069 -18.956858031388784 -73.68264118457896
rradius 23.465318989177362
rwrist -1.7910721133543923
rhand -21.42332970236318 27.658643709794262
rfingers 7.125020000000054
rthumb 4.936228210727808 -2.585595105162966
lclavicle 1.4582874339885708E-16 -7.59981345683761E-15
lhumerus -34.9875084262915 -1.7082050850224455 84.41589091978354
lradius 29.083492292659976
lwrist 9.48646621888479
lhand -31.28388072832265 24.73836939614331
lfingers 7.125020000000039
lthumb -4.505861623710839 55.36124345721687
rfemur -28.686434967656837 28.286457546738916 41.625510201133565
rtibia 23.54942503395999
rfoot -8.333864311896077 -13.229337445613101
rtoes -3.359901611447235
lfemur -2.9796299891206672 -1.7650667789862098 -21.937319813642848
ltibia 40.64545525474041
lfoot -1.965716707605356 -8.304157630031625
ltoes -12.784252701243256
179
root 0 0 0 -3.4840921515727103 2.805603303043732 2.398070138892214
lowerback 11.772357654892769 -0.8459174820583129 -3.391951422718954
upperback 1.265696217629742 -1.361103699310471 1.1148652808788224
thorax -5.231805592341235 -0.5775226745230964 3.2016100751580767
lowerneck -17.660657727758064 -2.8890025811999562 -2.4152349825762545
upperneck 17.685141175757067 -3.179804612206841 -0.36374895237825466
head 8.310446357162764 -1.704323621455335 -0.09261982183647088
rclavicle 3.4920987933692217E-15 1.993028467390611E-15
rhumerus -50.46150411559744 -18.951166248975607 -74.06175593845424
rradius 23.41193679341635
rwrist -1.9236502508257765
rhand -21.382985606789074 27.594099043681865
rfingers 7.125020000000054
rthumb 4.975152661956123 -2.6463204742060107
lclavicle 2.6488529668236407E-16 -7.384343258098768E-15
lhumerus -35.148668010944334 -1.7135443520178217 84.5260659957956
lradius 29.071057054605344
lwrist 9.59830795653643
lhand -31.175661484960667 24.766277083670943
lfingers 7.125020000000039
lthumb -4.402597689399347 55.36751394080996
rfemur -28.46435431927901 28.008475640940105 41.5178088772531
rtibia 23.58266670573833
rfoot -8.493905957698667 -12.988921808332446
rtoes -3.291034360132816
lfemur -6.393350296737388 0.17475664693496817 -21.101348956819557
ltibia 48.512836896728146
lfoot 0.9081621905159452 -10.632671720347371
ltoes -14.55502902668413
180
root 0 0 0 -3.6496727379638365 1.5764025520118352 2.014108436211572
lowerback 11.884576818545781 -0.683204590290218 -2.9034981808612015
upperback 1.299449488626605 -1.099445444871349 1.1701909636864454
thorax -5.284275197777712 -0.4513185849114223 2.952865569550334
lowerneck -17.626190699013225 -2.9260896699549903 -2.3213479807740014
upperneck 17.765111287739586 -3.2647460696879187 -0.3493378849544735
head 8.325535762782131 -1.7376111807513557 -0.11082884947126348
rclavicle 3.8047902153101596E-15 2.268444481930693E-15
rhumerus -50.261854671331854 -18.906981973096094 -74.70563479091379
rradius 23.357600973773547
rwrist -2.1854763136966255
rhand -21.33119844020409 27.479910633153295
rfingers 7.125020000000054
rthumb 5.025266515099069 -2.75824112584273
lclavicle 2.8406726703769073E-16 -7.074545232298634E-15
lhumerus -35.58074411794213 -1.7444492917001 84.69315586431706
lradius 29.059619711173625
lwrist 9.860339483293298
lhand -30.93544515738503 24.812842746016525
lfingers 7.125020000000039
lthumb -4.17417294928104 55.36100574207462
rfemur -28.021247494316825 27.540967282770907 41.31666930519778
rtibia 23.644520896692192
rfoot -8.755222171144133 -12.582824379444721
rtoes -3.04074132966198
lfemur -9.268396689902282 2.089151514551741 -18.621529776697802
ltibia 57.99344686656474
lfoot 4.172987538896958 -14.249955048814737
ltoes -15.686668257780296
